<svg viewBox="0 0 250 60"><path d="M137 21.2c-.2-.2-.5-.4-.8-.5-.3-.1-.6-.2-.9-.2H128c-1.3 0-2.6.2-3.9.7-2.3.9-4.2 2.8-5.1 5.1-.5 1.2-.8 2.6-.8 3.9V40h4.8v-4.4h9.9V40h4.8V22.9c0-.3-.1-.6-.2-.9-.1-.3-.3-.6-.5-.8m-4.1 9.5H123v-.6c0-.7.1-1.4.4-2 .2-.5.5-.9.8-1.3.3-.3.7-.6 1.1-.8.4-.2.8-.4 1.2-.5.3-.1.7-.2 1-.2h5.5v5.4zm-38.1-7.9c-.7-.7-1.6-1.3-2.6-1.7-1-.4-2.1-.6-3.2-.6h-8.8c-.3 0-.7 0-1 .2-.3.1-.6.3-.8.5-.2.2-.4.5-.6.8-.1.3-.2.6-.2.9v14.6c0 .3.1.7.2 1 .1.3.3.6.5.8.2.2.5.4.8.6.3.1.7.2 1 .2H89c1.1 0 2.2-.2 3.3-.7 1-.4 1.9-1 2.6-1.7.7-.8 1.3-1.7 1.7-2.6.4-1.1.6-2.2.6-3.3v-3c0-1.1-.2-2.2-.6-3.3-.4-1.1-1-1.9-1.8-2.7m-2.4 8.8c0 .5-.1 1-.2 1.4-.1.4-.4.8-.7 1-.3.3-.7.5-1.1.7-.4.3-.9.4-1.4.4h-6.3v-9.7H89c.5 0 1 .1 1.4.2.4.2.8.4 1.1.7.3.3.5.7.7 1.1.2.5.3.9.2 1.4v2.8zM6 29.7V50h20.2c10.9-.1 19.7-8.9 19.7-19.9V10H25.8C14.9 10 6 18.8 6 29.7m19 3.7c0 1.3-1 2.4-2.3 2.4H20v-2.5c.1-1.3 1.2-2.4 2.5-2.3H25v2.4zm10.4-12.9V30c0 5.1-4 9.2-9.1 9.3 2.1-1.3 3.3-3.6 3.3-6v-7.1h-7.1c-2.4 0-4.7 1.2-5.9 3.3.2-5 4.3-9 9.3-9.1h9.5zm39.1.7c-.2-.2-.5-.4-.8-.5-.3-.1-.6-.2-.9-.2h-7.3c-1.3 0-2.6.2-3.9.7-1.1.5-2.2 1.1-3.1 2-.9.9-1.5 1.9-2 3.1-.5 1.2-.7 2.6-.7 3.9V40h4.8v-4.4h9.7V40h4.8V22.9c0-.3 0-.6-.2-.9 0-.3-.2-.6-.4-.8m-4.2 9.5h-9.8v-.6c0-.7.1-1.4.3-2 .2-.5.5-1 .8-1.3.3-.3.7-.6 1.1-.8.4-.2.8-.4 1.2-.5.3-.1.7-.2 1-.2h5.5v5.4zm43.1-10.2-5.8 11.9-5.8-11.9h-5.4l9 18.4c.2.4.5.7.9.9.4.2.8.4 1.3.4s1-.1 1.4-.4c.4-.2.7-.6.9-.9l9-18.4h-5.5zm41.5 11.4L144.5 21c-.3-.4-.8-.6-1.3-.7-.5-.1-.9 0-1.4.1-.4.2-.8.5-1.1.9-.3.4-.5.9-.5 1.4V40h4.9V28.5l10.4 10.9c.2.2.5.4.8.6.3.1.6.2.9.2.3 0 .6-.1.9-.2.3-.1.5-.3.8-.5.2-.2.4-.5.5-.8.1-.3.2-.7.2-1V20.5H155l-.1 11.4zm78.8-2c-.1-.1-.2-.2-.3-.2-.1-.1-.2-.1-.4-.1h-4.9v1.9h4V33h-4.5c-.2 0-.4-.1-.4-.3v-4.2c0-.1 0-.2.1-.3.1-.1.2-.1.3-.1h6.2v-1.8h-6.2c-.3 0-.5 0-.7.1l-.6.3c-.2.1-.3.3-.4.4-.1.1-.2.3-.3.5-.1.2-.1.3-.2.5v4.5c0 .3 0 .5.1.8l.3.6c.1.2.2.3.4.4.1.1.3.2.5.3.2.1.3.1.5.2h5.9c.4 0 .7-.2.9-.6.1-.1.1-.2.1-.4v-3.4c0-.1 0-.2-.1-.4-.1-.1-.2-.2-.3-.2m-9.6 3.3c-.1-.1-.2-.1-.3-.2-.2-.1-.5-.1-.7 0-.1.1-.2.1-.3.2-.1.1-.2.2-.2.3 0 .1-.1.2-.1.4 0 .1 0 .2.1.4 0 .1.1.2.2.3.1.1.2.2.3.2.1 0 .2.1.4.1.1 0 .2 0 .4-.1.1-.1.2-.1.3-.2.1-.1.2-.2.2-.3 0-.1.1-.2.1-.4 0-.1 0-.2-.1-.4-.2-.1-.3-.2-.3-.3m19.8-3.1c0-.1-.1-.2-.2-.3-.1-.1-.2-.2-.3-.2-.1-.1-.2-.1-.4-.1h-4.9v1.9h4V33h-4.5c-.2 0-.4-.1-.4-.3v-4.2c0-.1 0-.2.1-.3.1-.1.2-.1.3-.1h6.2v-1.8h-6.2c-.3 0-.5 0-.7.1l-.6.3c-.2.1-.3.3-.4.4-.1.1-.2.3-.3.5-.1.2-.1.3-.2.5v4.5c0 .3 0 .5.1.8l.3.6c.1.2.2.3.4.4.1.1.3.2.5.3.2.1.3.1.5.2h5.9c.1 0 .3 0 .4-.1.1 0 .2-.1.3-.2.1-.1.1-.2.2-.3.1-.1.1-.2.1-.4v-3.4c-.1-.1-.1-.2-.2-.4m-20-8.6-.5-1h-.7v2.1h.5v-1.1l.5.9h.3l.2-.5.2-.5v1.1h.5v-2.1h-.7l-.3 1.1zm-1.3-1h-1.7v.5h.6v1.6h.5V21h.6v-.5zm-39.2.2c-.3.1-.6.3-.8.5-.2.2-.4.5-.5.8-.1.3-.2.6-.2.9v11.7c0 .9.2 1.7.5 2.5.3.6.8 1.2 1.4 1.7.5.4 1.1.8 1.7 1 .5.2 1.1.3 1.7.3h12.5v-5h-12.6c-.2 0-.3 0-.5-.1-.1-.1-.2-.3-.2-.4v-2H198v-4.8h-11.6v-2.5h13.2v-4.8h-15.5c-.1 0-.4.1-.7.2m-17.6 0c-.5.2-1 .4-1.4.7-.4.3-.7.6-1 1-.3.3-.5.7-.7 1.1-.2.4-.3.8-.4 1.2-.1.4-.1.8-.1 1.1v8.8c0 .6.1 1.2.2 1.7s.4 1 .7 1.4c.3.4.6.7 1 1 .3.3.7.5 1.1.7.4.2.8.3 1.2.4.4.1.7.1 1.1.2H180v-4.9h-12.6c-.1 0-.3 0-.4-.1-.1-.1-.1-.2-.1-.4v-8.7c0-.2 0-.3.1-.4.1-.1.3-.1.4-.1h12.5v-4.8h-12.5c-.5-.1-1 0-1.6.1m52.9 2.1c-.8-.7-1.6-1.3-2.6-1.7-1-.4-2.2-.6-3.3-.6h-8.7c-.3 0-.7 0-1 .2-.3.1-.6.3-.8.5-.2.2-.4.5-.5.8-.1.3-.2.6-.2.9v14.6c0 .3.1.7.2 1 .1.3.3.6.5.8.2.2.5.4.8.6.3.1.7.2 1 .2h8.7c1.1 0 2.2-.2 3.3-.7 2-.8 3.6-2.4 4.4-4.4.4-1.1.6-2.2.6-3.3v-3c0-1.1-.2-2.3-.6-3.3-.5-.9-1-1.8-1.8-2.6m-2.4 8.8c0 .5-.1 1-.3 1.4-.2.4-.4.8-.7 1-.3.3-.7.5-1.1.7-.5.2-.9.3-1.4.2h-6.4v-9.7h6.4c.5 0 1 .1 1.4.2.4.2.8.4 1.1.7.3.3.5.7.7 1.1.2.5.3.9.3 1.4v3z"/></svg>
