<svg viewBox="0 0 250 60"><path d="m60.2 16.8 5.7 6.8 2.5.7c5.3 1.5 9.7 4.6 13.8 9.7l1.3 1.6 1.5-1.8c4.4-5.2 8.5-8 13.7-9.6l2.6-.7 5.6-6.7c3.1-3.7 5.5-6.7 5.3-6.8-.1-.1-4.9 1.4-10.7 3.2L91 16.5l-3.6 4.3c-2 2.4-3.7 4.4-3.9 4.4-.1 0-1.9-1.9-3.9-4.4L76 16.5l-10.5-3.3C59.7 11.5 54.9 10 54.7 10s2.3 3 5.5 6.8zm9.3 1.3c2.5.7 4.6 1.4 4.6 1.5s.9 1.1 2 2.4c3.3 3.9 3.2 3.8 1.8 2.9-2.3-1.5-5.5-3-7.8-3.8-1.7-.6-2.6-1.1-3.4-2-1.5-1.7-2-2.5-1.9-2.5.1.1 2.2.8 4.7 1.5zm32.4-.8c-2 2.6-2.7 3.1-4.9 3.9-2.4.7-5.6 2.3-7.8 3.8-1.1.7-1 .5 1-1.9 1.2-1.5 2.5-2.9 2.8-3.2.5-.4 8.2-3 9.1-3.1.1-.1 0 .2-.2.5zm-20.1-3.7-1.9.8.1 2.1c.1 1.9.2 2.3 1.7 4.1.9 1.1 1.8 2.1 1.9 2.1.1 0 .7-.6 1.3-1.4L86 20l-.7-1.5c-.6-1.3-.7-1.6-.3-2.5.4-.9.6-1.1 1.3-.9.6.1.8 0 .8-.6-.1-1.8-2.2-2.2-5.3-.9zm27.6 12.3c-3.1 5.2-7.1 11.6-8.7 14.3l-3 4.9h6.2l6.5-10.9c3.6-6 6.6-10.9 6.7-10.8.1.1 1.8 19.4 1.8 21 0 .8.1.8 2.8.8h2.8V44c0-.6-.5-6.9-1.1-13.9-.6-7-1.1-13-1.1-13.2 0-.3-1-.4-3.6-.4h-3.6c.1-.1-5.7 9.4-5.7 9.4zm23.4-8.7c.1.5.3 1.7.5 2.7l.2 1.9h5.9c3.3 0 6.2.1 6.5.2.9.4 1.7 2.2 1.5 3.5-.3 1.6-1.5 3.3-2.8 4.1-1.1.6-1.8.7-7.3.7h-6.1l-.5 1.8c-.3 1-1.1 4.1-1.8 6.8s-1.3 5.2-1.5 5.6c-.2.6.1.6 2.7.6h2.8l.4-1.3c.2-.7.7-2.8 1.2-4.5l.8-3.2 3.5-.2c4.6-.3 5.9-.7 8.5-2.4 2.3-1.5 3.4-2.8 4.7-5.3 1-1.9 1.3-5.4.7-7.2-.5-1.5-2.7-3.6-4.2-4.1-.7-.2-4-.4-8.6-.4h-7.4l.3.7zm23.1.8c.5.9.8 2.1.8 2.7v1h11.2l.7-2.7.7-2.7H155c0 .1.9 1.7.9 1.7zm16.4-1.3c0 .2 1 3.4 2.2 7.2l2.3 6.9-6.2 7.2-6.2 7.2 3.4-.1 3.3-.1 12.1-14.1c6.6-7.7 12.1-14.2 12.1-14.2 0-.1-1.4-.2-3.1-.2h-3.1l-3.8 4.5c-3.5 4.1-3.8 4.4-4.1 3.6-.1-.5-.8-2.4-1.5-4.5l-1.2-3.6h-3.1c-1.7-.1-3.1 0-3.1.2zm-16.6 11.7c0 .2-.7 1.4-1.6 2.7l-1.6 2.3h12.3l.6-2.1c.3-1.1.6-2.3.7-2.7.2-.6-.2-.6-5.1-.6-3.1.1-5.3.2-5.3.4zm-79.4 8.7-3.1 3 1.6 1.6 1.6 1.6 2.1-2.4c1.3-1.5 2.3-2.3 2.6-2.1.8.5.4 1.2-1.5 3.4l-2 2.2.8.8.8.8 2.2-2.4 2.2-2.4 2.2 2.4L88 46l.8-.8.8-.9-2-2.2c-2-2.2-2.3-2.9-1.6-3.4.3-.2 1.2.6 2.6 2.1l2.2 2.4 1.5-1.5c.8-.8 1.5-1.6 1.5-1.7 0-.1-1.5-1.5-3.2-3.1L87.4 34l-1.9 2.1-1.9 2.1-1.8-2.1c-1-1.1-1.9-2-2.1-2-.2 0-1.7 1.4-3.4 3zm105.6-.4-2.3 2.7 1 2.8 1 2.8h3.2c2.4 0 3.1-.1 3-.5-.1-.2-.9-2.7-1.8-5.5s-1.7-5-1.7-5c-.1.1-1.2 1.3-2.4 2.7zm-42.5 3.2c0 .1-.3 1.3-.7 2.7L138 45l11.9-.1 11.9-.1.7-2.3c.4-1.3.6-2.4.6-2.6 0-.1-5.3-.2-11.8-.2s-11.9.1-11.9.2zm-57.5 5.6-1.6 1.8 1.5 1.4c.8.7 1.6 1.3 1.7 1.4.1 0 .9-.6 1.8-1.4l1.6-1.4-1.7-1.8-1.7-1.8-1.6 1.8z"/></svg>
