<?xml version="1.0" encoding="utf-8"?>
<!-- Generator: Adobe Illustrator 24.1.3, SVG Export Plug-In . SVG Version: 6.00 Build 0)  -->
<svg version="1.1" id="Layer_1" xmlns="http://www.w3.org/2000/svg" xmlns:xlink="http://www.w3.org/1999/xlink" x="0px" y="0px"
	 viewBox="0 0 300 23" style="enable-background:new 0 0 300 23;" xml:space="preserve">
<path d="M11.7,2.9c-0.4,0.1-0.5,0.4-0.5,0.6v13.9c0,4.8-2.4,5.6-6.2,5.6c-2.4,0-5-0.5-5-0.5l0.3-2.7c0,0,2,0.3,4,0.3
	c2.9,0,3.3-0.8,3.3-3.6V3.5c0-0.2,0-0.5-0.4-0.6L5.4,2.5V0.2h8.1v2.3L11.7,2.9z M56.7,19.3L49,0.2h-9.2v2.3c0.5,0.2,2.8,0,2.2,1.1
	c0,0-6.8,15.6-6.8,15.6c-0.2,1-1.7,0.9-2.4,1.1v2.3h7.7v-2.3c-0.4-0.2-1.8-0.1-1.8-0.7c0-0.3,1.3-3.2,1.4-3.5c0,0,5.2-12.7,5.2-12.7
	c0.2-1,1.4-1,1.7,0l5.1,12.7c0.1,0.4,1.3,3.2,1.3,3.5c0,0.6-1.4,0.5-1.8,0.7v2.3h7.9v-2.3C58.5,20.1,57,20.3,56.7,19.3z M84.5,19.5
	c0,0.2,0.1,0.5,0.5,0.6l1.8,0.3v2.3h-8.1v-2.3l1.8-0.3c0.4-0.1,0.5-0.4,0.5-0.6v-16c0-0.2-0.1-0.5-0.5-0.6l-1.8-0.3V0.2h13.9
	c5.3,0,7.1,1.7,7.1,6.3c0,1.9-0.5,3.4-1.4,4.4c-0.9,1-2.2,1.4-3.5,1.6c-0.5,0.1-0.9,0.1-0.9,0.7c0,0.3,0.1,0.4,0.3,0.7l3.7,5.4
	c0.4,0.6,0.8,0.7,1.6,0.9l1.3,0.3v2.3h-5.1l-4.3-6.3v-3.5h-6.8V19.5z M95.3,4c-0.6-0.5-1.6-0.8-3.9-0.8h-6.8v6.7h6.8
	c2.3,0,3.4-0.3,3.9-0.8c0.6-0.6,0.7-1.5,0.7-2.6C95.9,5.5,95.9,4.6,95.3,4z M143.7,2.9c-0.5,0.1-0.7,0.3-0.9,0.8l-6.8,18.9h-6.3
	l-6.7-18.9c-0.2-0.5-0.3-0.7-0.9-0.8l-1.7-0.4V0.2h8.1v2.3l-1.4,0.3c-0.4,0.1-0.5,0.4-0.4,0.7l5.1,15.3c0.2,0.7,0.4,1.1,1.1,1.1
	c0.7,0,0.9-0.4,1.1-1.1l5-15.3c0.1-0.3,0-0.6-0.4-0.7l-1.4-0.3V0.2h8.1v2.3L143.7,2.9z M165.4,22.7v-2.3l1.8-0.3
	c0.4-0.1,0.5-0.4,0.5-0.6v-16c0-0.2-0.1-0.5-0.5-0.6l-1.8-0.3V0.2h18.5v3h-12.6v6.5h12.2v2.9h-12.2v7h12.6v3H165.4z M228.8,2.9
	c-0.4,0.1-0.5,0.4-0.5,0.6v19.2h-7.1L212,3.5c-0.2-0.5-0.3-0.6-0.8-0.6c-0.7,0-0.7,0.3-0.7,0.9v15.7c0,0.2,0.1,0.5,0.5,0.6l1.8,0.3
	v2.3H205v-2.3l1.8-0.3c0.4-0.1,0.5-0.4,0.5-0.6v-16c0-0.2-0.1-0.5-0.5-0.6L205,2.5V0.2h9.4l9.1,19c0.2,0.4,0.4,0.6,0.8,0.6
	c0.7,0,0.7-0.4,0.7-0.9V3.5c0-0.2-0.1-0.5-0.5-0.6l-1.8-0.3V0.2h7.8v2.3L228.8,2.9z M252.2,22.7v-2.3l1.8-0.3
	c0.4-0.1,0.5-0.4,0.5-0.6v-16c0-0.2-0.1-0.5-0.5-0.6l-1.8-0.3V0.2h8.1v2.3l-1.8,0.3C258.1,3,258,3.2,258,3.5v16
	c0,0.2,0.1,0.5,0.5,0.6l1.8,0.3v2.3H252.2z M282.2,22l0.4-3c0,0,4.4,0.8,8,0.8c2.6,0,5.7,0,5.7-3.4c0-3.5-1.6-3.2-5.4-3.4
	c-5.2-0.3-9.3-0.2-9.3-6.3c0-5.3,2.9-6.7,8.9-6.7c4.3,0,8.1,0.8,8.1,0.8l-0.5,2.9c0,0-4-0.8-7-0.8c-2.7,0-6-0.1-6,3.2
	c0,3.3,2.3,3.2,5.5,3.3c5,0.2,9.2,0.1,9.2,6.4c0,6.1-3.5,7-8.9,7C286.3,22.9,282.2,22,282.2,22z"/>
<g>
</g>
<g>
</g>
<g>
</g>
<g>
</g>
<g>
</g>
<g>
</g>
<g>
</g>
<g>
</g>
<g>
</g>
<g>
</g>
<g>
</g>
<g>
</g>
<g>
</g>
<g>
</g>
<g>
</g>
</svg>
