<svg xmlns="http://www.w3.org/2000/svg" viewBox="0 0 300 23"><path d="M11.7 2.9c-.4.1-.5.4-.5.6v13.9c0 4.8-2.4 5.6-6.2 5.6-2.4 0-5-.5-5-.5l.3-2.7s2 .3 4 .3c2.9 0 3.3-.8 3.3-3.6v-13c0-.2 0-.5-.4-.6l-1.8-.4V.2h8.1v2.3l-1.8.4zm45 16.4L49 .2h-9.2v2.3c.5.2 2.8 0 2.2 1.1l-6.8 15.6c-.2 1-1.7.9-2.4 1.1v2.3h7.7v-2.3c-.4-.2-1.8-.1-1.8-.7 0-.3 1.3-3.2 1.4-3.5l5.2-12.7c.2-1 1.4-1 1.7 0l5.1 12.7c.1.4 1.3 3.2 1.3 3.5 0 .6-1.4.5-1.8.7v2.3h7.9v-2.3c-1-.2-2.5 0-2.8-1zm27.8.2c0 .2.1.5.5.6l1.8.3v2.3h-8.1v-2.3l1.8-.3c.4-.1.5-.4.5-.6v-16c0-.2-.1-.5-.5-.6l-1.8-.3V.2h13.9c5.3 0 7.1 1.7 7.1 6.3 0 1.9-.5 3.4-1.4 4.4-.9 1-2.2 1.4-3.5 1.6-.5.1-.9.1-.9.7 0 .3.1.4.3.7l3.7 5.4c.4.6.8.7 1.6.9l1.3.3v2.3h-5.1l-4.3-6.3V13h-6.8v6.5zM95.3 4c-.6-.5-1.6-.8-3.9-.8h-6.8v6.7h6.8c2.3 0 3.4-.3 3.9-.8.6-.6.7-1.5.7-2.6-.1-1-.1-1.9-.7-2.5zm48.4-1.1c-.5.1-.7.3-.9.8L136 22.6h-6.3L123 3.7c-.2-.5-.3-.7-.9-.8l-1.7-.4V.2h8.1v2.3l-1.4.3c-.4.1-.5.4-.4.7l5.1 15.3c.2.7.4 1.1 1.1 1.1.7 0 .9-.4 1.1-1.1l5-15.3c.1-.3 0-.6-.4-.7l-1.4-.3V.2h8.1v2.3l-1.6.4zm21.7 19.8v-2.3l1.8-.3c.4-.1.5-.4.5-.6v-16c0-.2-.1-.5-.5-.6l-1.8-.3V.2h18.5v3h-12.6v6.5h12.2v2.9h-12.2v7h12.6v3h-18.5zm63.4-19.8c-.4.1-.5.4-.5.6v19.2h-7.1L212 3.5c-.2-.5-.3-.6-.8-.6-.7 0-.7.3-.7.9v15.7c0 .2.1.5.5.6l1.8.3v2.3H205v-2.3l1.8-.3c.4-.1.5-.4.5-.6v-16c0-.2-.1-.5-.5-.6l-1.8-.4V.2h9.4l9.1 19c.2.4.4.6.8.6.7 0 .7-.4.7-.9V3.5c0-.2-.1-.5-.5-.6l-1.8-.3V.2h7.8v2.3l-1.7.4zm23.4 19.8v-2.3l1.8-.3c.4-.1.5-.4.5-.6v-16c0-.2-.1-.5-.5-.6l-1.8-.3V.2h8.1v2.3l-1.8.3c-.4.2-.5.4-.5.7v16c0 .2.1.5.5.6l1.8.3v2.3h-8.1zm30-.7l.4-3s4.4.8 8 .8c2.6 0 5.7 0 5.7-3.4 0-3.5-1.6-3.2-5.4-3.4-5.2-.3-9.3-.2-9.3-6.3 0-5.3 2.9-6.7 8.9-6.7 4.3 0 8.1.8 8.1.8l-.5 2.9s-4-.8-7-.8c-2.7 0-6-.1-6 3.2 0 3.3 2.3 3.2 5.5 3.3 5 .2 9.2.1 9.2 6.4 0 6.1-3.5 7-8.9 7-4.6.1-8.7-.8-8.7-.8z"/></svg>
