<svg xmlns="http://www.w3.org/2000/svg" viewBox="0 0 300 45"><path d="M21.52 29.45c-.68 0-1.25-.24-1.73-.72-.48-.47-.72-1.05-.72-1.73v-2.45h3.27v1.63h5.31V15.55h3.27V27c0 .68-.24 1.25-.72 1.73s-1.05.72-1.73.72h-6.95zm42.02-13.9 6.68 13.9h-3.57l-1.42-2.86h-7.02l-1.37 2.86h-3.57l6.49-13.9h3.78zm-3.76 7.77h3.83l-1.94-3.93-1.89 3.93zm46.05 6.13h-3.57l-2.87-5.31h-3.54v5.31h-3.27v-13.9h11.04c.68 0 1.26.24 1.74.71.48.48.72 1.06.72 1.74v3.68c0 .67-.24 1.25-.72 1.73s-1.06.72-1.74.72h-.57l2.78 5.32zm-3.04-10.63h-6.95v2.04h6.95v-2.04zm42.57-3.27-6.49 13.9h-3.78l-6.68-13.9h3.57l4.99 10.05 4.81-10.05h3.58zm22.35 0h13.9v3.27h-13.9v-3.27zm0 5.31h13.9v3.27h-13.9v-3.27zm0 5.32h13.9v3.27h-13.9v-3.27zm50.95-10.63v13.9h-3.69l-7.75-9.07v9.07h-3.27v-13.9h3.69l7.75 9.06v-9.06h3.27zm22.35 0h3.27v13.9h-3.27v-13.9zM280.93 27c0 .68-.24 1.25-.71 1.73-.48.48-1.06.72-1.74.72h-9.4c-.68 0-1.25-.24-1.73-.72-.48-.47-.72-1.05-.72-1.73v-2.05h3.27v1.23h7.76v-2.04l-9.26-.01-.18-.04c-.47-.1-.85-.34-1.15-.71s-.45-.8-.45-1.29V18c0-.68.24-1.26.72-1.74a2.34 2.34 0 0 1 1.73-.71h9.4c.68 0 1.26.24 1.74.71.48.48.71 1.06.71 1.74v2.04h-3.27v-1.22h-7.76v2.03l9.26.01.18.04c.48.1.86.34 1.15.71.3.37.45.8.45 1.28V27z"/></svg>
