<svg viewBox="0 0 24 24">
<path id="teespring-logo" d="M15.8,8.3c-0.8,0-1.4,0.6-1.4,1.4c0,1.1,0.4,2.1,1.1,2.8c0.3,0.3,0.6,0.6,1,0.8c0.2-0.3,0.4-0.7,0.5-1
	c0.2-0.6,0.3-1.1,0.3-1.8c0-0.4,0-0.7-0.1-1.1c0,0,0-0.1,0-0.1C17,8.8,16.4,8.3,15.8,8.3L15.8,8.3z M7.2,12.3c0.1,0.4,0.3,0.7,0.5,1
	c0.4-0.2,0.7-0.5,1-0.8c0.7-0.8,1.1-1.7,1.1-2.8c0-0.8-0.6-1.4-1.4-1.4c-0.6,0-1.2,0.4-1.4,1c0,0,0,0.1,0,0.1
	c-0.1,0.3-0.1,0.7-0.1,1.1C6.8,11.2,7,11.8,7.2,12.3L7.2,12.3z M22.7,11.6l1.3,0.7c-1,1.9-2.9,3.2-5.2,3.2c-0.7,0-1.3-0.1-1.9-0.3
	c-1.2,1.2-2.9,2-4.8,2c-1.9,0-3.6-0.8-4.8-2c-0.6,0.2-1.3,0.3-1.9,0.3c-2.4,0-4.4-1.4-5.4-3.4l1.4-0.6C2,13,3.6,14,5.4,14
	c0.3,0,0.6,0,0.9-0.1c-0.6-1-0.9-2.1-0.9-3.4c0-0.5,0.1-0.9,0.1-1.4c0-0.1,0-0.1,0-0.2C5.9,7.8,7,6.9,8.3,6.9c0,0,0.1,0,0.1,0
	c0.1,0,0.2,0,0.2,0c1.4,0.2,2.6,1.4,2.6,2.8c0,2-1,3.7-2.5,4.7c0.9,0.8,2.1,1.2,3.4,1.2c1.3,0,2.5-0.5,3.4-1.2
	c-1.5-1-2.5-2.8-2.5-4.7c0-1.5,1.1-2.7,2.6-2.8c0.1,0,0.2,0,0.2,0c0,0,0.1,0,0.1,0c1.3,0,2.5,0.9,2.8,2.1c0,0.1,0,0.1,0,0.2
	c0.1,0.4,0.1,0.9,0.1,1.4c0,1.2-0.3,2.4-0.9,3.4c0.3,0.1,0.6,0.1,0.9,0.1C20.5,14,21.9,13,22.7,11.6L22.7,11.6z"/>
</svg>
